<svg xmlns="http://www.w3.org/2000/svg" width="24" height="24"><g fill="none" fill-rule="evenodd"><path d="M0 0h24v24H0V0zm-512.7 6.4-1.7-1.8a.5.5 0 0 0-.7 0l-6.9 7L6 14h2.5l6.9-7c.2 0 .2-.4 0-.6z"/><path fill="#002F34" fill-rule="nonzero" d="M20 2H4a2 2 0 0 0-2 2 2078787 2078787 0 0 1 0 16.7c0 .4 0 .5.5.5.2 0 .5-.2 1-.6L6 18h14a2 2 0 0 0 2-2V4a2 2 0 0 0-2-2z"/><path fill="#FFF" d="M6 10.5v.9h.3c.1 0 .2 0 .3-.2a.4.4 0 0 0 0-.3.4.4 0 0 0 0-.3.4.4 0 0 0-.3-.1H6zm0-1.7v.8h.3a.4.4 0 0 0 .2 0V9a.4.4 0 0 0-.2 0H6zM7.7 11c0 .4-.1.7-.4 1-.2.2-.5.3-1 .3H5V8h1.5c.4 0 .7.1 1 .3.2.3.3.6.3 1l-.1.4a.8.8 0 0 1-.4.4c.2 0 .4.2.4.4l.2.6zm.3 1.3V8h1v3.4h1v1zm4.4-3a.7.7 0 0 0-.5.3.8.8 0 0 0-.2.2.7.7 0 0 0 0 .3.8.8 0 0 0 .4.7.7.7 0 0 0 .6 0 .7.7 0 0 0 .4-.4.8.8 0 0 0 0-.3.7.7 0 0 0-.7-.8m0-1.5 1 .2.6.5a2.3 2.3 0 0 1 .6 1.6c0 .3 0 .6-.2.9l-.4.7a2.2 2.2 0 0 1-1.6.6l-.9-.1a2.3 2.3 0 0 1-1.2-1.2 2.2 2.2 0 0 1-.2-1 2.2 2.2 0 0 1 .7-1.5 2.3 2.3 0 0 1 1.6-.7m6.7 4.5h-1V12a1.3 1.3 0 0 1-.4.2 1.9 1.9 0 0 1-.6 0h-.9a2 2 0 0 1-1.2-1.3 2.5 2.5 0 0 1-.1-1 2.3 2.3 0 0 1 .6-1.5l.7-.5 1-.2a2.6 2.6 0 0 1 1 .3 1.7 1.7 0 0 1 .8.7l-.9.6a2.1 2.1 0 0 0-.1-.2 1 1 0 0 0-.2-.2 1.2 1.2 0 0 0-.3 0 1.3 1.3 0 0 0-.4 0h-.4a1 1 0 0 0-.4.2l-.2.4a1.5 1.5 0 0 0-.1.5v.5a1.1 1.1 0 0 0 .7.7h1l.4-.3v-.3h-.6V10h1.6v2.4z"/></g></svg>